<?xml version="1.0" encoding="UTF-8" standalone="no"?>
<svg
   xmlns:dc="http://purl.org/dc/elements/1.1/"
   xmlns:cc="http://creativecommons.org/ns#"
   xmlns:rdf="http://www.w3.org/1999/02/22-rdf-syntax-ns#"
   xmlns:svg="http://www.w3.org/2000/svg"
   xmlns="http://www.w3.org/2000/svg"
   xmlns:sodipodi="http://sodipodi.sourceforge.net/DTD/sodipodi-0.dtd"
   xmlns:inkscape="http://www.inkscape.org/namespaces/inkscape"
   version="1.0"
   width="1279.97pt"
   height="239.2782pt"
   viewBox="0 0 1279.97 239.2782"
   preserveAspectRatio="xMidYMid meet"
   id="svg8"
   sodipodi:docname="grass.svg"
   inkscape:version="0.92.4 5da689c313, 2019-01-14">
  <defs
     id="defs12" />
  <sodipodi:namedview
     pagecolor="#ffffff"
     bordercolor="#666666"
     borderopacity="1"
     objecttolerance="10"
     gridtolerance="10"
     guidetolerance="10"
     inkscape:pageopacity="0"
     inkscape:pageshadow="2"
     inkscape:window-width="1920"
     inkscape:window-height="1013"
     id="namedview10"
     showgrid="false"
     inkscape:zoom="0.576734"
     inkscape:cx="862.857"
     inkscape:cy="-4.711763"
     inkscape:window-x="0"
     inkscape:window-y="0"
     inkscape:window-maximized="1"
     inkscape:current-layer="g6" />
  <metadata
     id="metadata2">
Created by potrace 1.15, written by Peter Selinger 2001-2017
<rdf:RDF>
  <cc:Work
     rdf:about="">
    <dc:format>image/svg+xml</dc:format>
    <dc:type
       rdf:resource="http://purl.org/dc/dcmitype/StillImage" />
  </cc:Work>
</rdf:RDF>
</metadata>
  <g
     transform="matrix(0.1,0,0,-0.1,-0.0292969,436.278)"
     id="g6"
     style="fill:#000000;stroke:none">
    <path
       id="path4"
       transform="matrix(7.5,0,0,-7.5,0,4403.136)"
       style="fill:#0b4114;fill-opacity:1;stroke-width:0.1333333"
       d="m 1595.291,5.380859 c -0.399,4.603651 -0.797,11.735111 -1.023,19.970701 -1.067,38.93333 -3.868,83.06564 -5.202,82.26564 -0.533,-0.4 -1.066,-1.9982 -1.066,-3.4649 0,-5.06642 -5.467,-21.46701 -10.801,-32.40035 -5.733,-12 -16.265,-25.86763 -25.865,-34.26757 l -6.4,-5.73243 4.798,6.79883 c 6.934,9.6 13.467,24.40052 13.467,29.86719 -0.133,2.53333 -1.199,10.40065 -2.666,17.33398 -1.866,10 -3.599,14.66665 -8.133,22.00005 -6.4,10.2666 -14.934,31.0653 -18.668,45.332 l -2.398,9.334 -0.4,-9.1992 c -0.4,-8.2667 -0.134,-9.468 3.066,-12.668 4.267,-4.5334 4.267,-5.7334 -0.133,-4 -2,0.6666 -3.734,1.0669 -3.867,0.9336 -0.267,-0.2667 -1.067,-11.8658 -2,-25.7324 -1.6,-25.2003 -1.6,-25.46671 2.4,-52.00005 2.267,-14.66666 3.866,-26.80026 3.733,-26.93359 -0.8,-0.8 -12.799,18.53372 -13.865,22.40039 -0.667,2.8 -0.8,10.93268 0,20.66602 1.2,17.86666 -0.269,49.06733 -2.536,51.33403 -1.066,1.0661 -1.198,-0.5331 -0.798,-5.0665 0.4,-4.8 0.265,-5.867 -0.801,-4.4003 -0.8,1.0666 -1.467,3.0656 -1.467,4.2656 0,4.4 -2.265,2.4013 -3.865,-3.3321 -2.534,-8.6666 -11.868,-26.80034 -15.602,-30.40034 -1.866,-1.73334 -5.199,-3.73321 -7.599,-4.53321 -3.6,-1.06666 -4.401,-2.26784 -5.467,-7.20117 -0.8,-3.73333 -0.799,-6.53333 0.135,-8 1.066,-1.73333 0.931,-2.26562 -1.069,-2.26562 -1.466,0 -2.533,0.53255 -2.533,1.19922 0,0.53328 -3.999,5.0677 -8.799,9.73437 -7.6,7.46667 -9.734,8.93242 -15.201,9.73242 -9.067,1.46667 -12.133,3.86618 -19.467,15.59963 l -6.533,10.2676 -0.799,-10.5332 C 1426.401,83.88496 1425.2,75.88477 1424,77.88477 c -0.8,1.06666 -1.2,-0.66745 -1.066,-4.80079 0,-3.73333 -0.8,-8.79869 -2,-11.33203 l -2,-4.66797 -0.268,8 c -0.8,35.86662 -2.4,64.93482 -3.6,66.13482 -0.933,0.9328 -1.599,2e-4 -2.132,-3.0665 -0.4,-2.4 -2.001,-11.7346 -3.735,-20.6679 L 1406.268,91.08398 1410,66.15234 c 5.867,-40.53333 6.133,-37.46849 -2.533,-24.53515 L 1400,52.68555 v 11.19922 c 0,6.13333 -0.533,11.19921 -1.199,11.19921 -0.667,0 -2.802,-2.53242 -4.668,-5.73242 -3.2,-5.33333 -9.601,-13.73359 -8.401,-10.93359 0.267,0.66667 2.134,4.66601 4,8.66601 1.867,4 3.601,8.26732 3.868,9.33399 0.133,1.2 -2.533,5.60104 -6.133,9.73437 l -6.533,7.59961 -3.067,-4.5332 c -3.6,-5.33333 -8.001,-6.93333 -21.201,-8 l -9.332,-0.80078 8.398,2.5332 c 10.4,3.06667 13.068,5.46615 15.735,14.13281 2.133,6.80002 2.133,7.20082 -0.401,10.80082 -1.466,2.1333 -5.065,8.4005 -7.732,13.8672 l -5.066,10 -1.202,-4.668 c -2.533,-9.3333 -3.732,-7.3333 -3.732,6 0,13.2 -4.001,32.0006 -5.734,27.334 -0.4,-1.0667 -1.066,-22.4007 -1.332,-47.334 -0.534,-32.00006 -1.335,-49.06668 -2.801,-58.00002 -3.734,-22.79994 -4.266,-22.39869 -5.199,2.66797 -1.334,31.6 -3.601,73.19925 -4.401,77.19925 -0.933,4.2666 -2.266,2.2674 -6,-9.1992 -7.2,-21.7334 -22.667,-45.06697 -36.267,-54.93364 -3.6,-2.53333 -3.466,-2.26758 1.201,3.73242 2.666,3.6 6.665,10.26693 8.931,14.9336 l 3.868,8.40039 -2.666,8.26753 c -1.467,4.5334 -3.067,11.1989 -3.6,14.7989 l -1.066,6.5332 -1.868,-3.4668 c -1.066,-2.2667 -2.934,-3.5996 -4.668,-3.5996 -1.6,0 -2.4,0.4002 -2,0.9336 0.534,0.5333 -0.666,2.5326 -2.666,4.666 -2,2 -2.932,3.7344 -2.132,3.7344 0.666,0 2.399,-1.2013 3.732,-2.668 1.867,-2.1333 2.668,-2.2664 3.602,-1.0664 2.4,4 0.933,9.4677 -4.934,17.7344 -6.267,8.8 -18,32.1319 -18,35.8652 0,1.2 -0.534,2.1348 -1.334,2.1348 -0.8,0 -1.334,-6.0007 -1.334,-15.334 0,-23.2 5.733,-38.3999 16,-42.5332 2.933,-1.2 5.334,-2.2666 5.334,-2.5332 0,-0.2667 -2.801,-2e-4 -6.268,0.5332 -3.6,0.5333 -7.066,1.0664 -8,1.0664 -0.8,0.1333 -3.331,1.6001 -5.464,3.4668 l -3.868,3.1992 -2.132,-10.3984 c -1.2,-5.7334 -2.934,-12.4003 -4,-14.9336 -2,-4.2667 -2.002,-3.3345 -2.135,16.7988 -0.134,21.4667 -0.8,27.334 -2.934,27.334 -0.666,0 -1.199,-1.3331 -1.199,-3.0664 -0.133,-1.6 -1.734,-7.2004 -3.867,-12.4004 l -3.6,-9.334 2.133,-8 c 1.333,-4.2667 3.867,-11.1992 5.867,-15.1992 l 3.6,-7.33402 -3.467,4 c -1.867,2.13334 -5.465,7.46822 -7.865,11.60152 l -4.268,7.7325 -3.199,-4.2657 c -3.6,-4.9333 -3.601,-3.8683 -0.135,-27.06832 1.334,-9.6 2.401,-17.46575 2.268,-17.73242 -0.267,-0.13333 -3.468,4.39948 -7.334,10.13282 -4.534,7.06661 -6.799,11.73463 -6.799,14.66796 0,2.4 -0.534,4.26563 -1.334,4.26563 -0.667,0 -1.334,-1.06563 -1.334,-2.26563 0,-1.2 -0.4,-1.73398 -0.934,-1.33398 -0.4,0.53333 -1.998,-0.13404 -3.464,-1.33398 -2.667,-2.4 -2.668,-2.39935 -0.268,1.33398 1.867,2.93333 2.133,4.53258 1.066,8.66604 -0.666,2.6666 -0.799,6.5332 -0.265,8.5332 0.933,3.6 -0.667,5.4666 -1.867,2 -0.534,-1.6 -1.333,4.2676 -3.067,22.2676 l -0.933,9.0664 -4.934,-9.5996 c -6.4,-12 -8.533,-14.4002 -14.133,-15.4668 -2.533,-0.4 -4.801,-1.3344 -5.201,-1.7344 -0.267,-0.5334 1.2,-4.8001 3.467,-9.4668 3.866,-8.26678 1.868,-9.19812 -2.266,-0.9317 -3.333,6.2667 -3.333,3.465 0,-7.06832 4.4,-14 8.933,-23.59921 14.666,-31.19921 5.067,-6.4 5.067,-6.53295 1.067,-3.59961 -9.334,6.53333 -23.201,25.20072 -29.868,39.86714 l -4,8.6661 -4.666,-4.6661 -4.666,-4.8007 -1.201,-19.06644 c -0.533,-10.53334 -1.066,-27.60105 -1.066,-37.73438 -0.134,-11.86667 -0.534,-18.26536 -1.467,-17.33203 -4.267,4.26667 -8.933,75.19855 -7.467,113.86525 0.4,11.7333 0.268,18 -0.398,16 -0.667,-1.8667 -2.801,-8.6654 -4.801,-15.332 -2,-6.5334 -6.001,-17.3334 -8.801,-24 -2.8,-6.5334 -5.199,-12.534 -5.199,-13.334 0,-0.6667 1.868,-3.1996 4.268,-5.5996 2.4,-2.40024 3.598,-4.40043 2.931,-4.40043 -0.8,0 -3.066,1.86652 -5.199,4.00003 l -3.867,4.1328 -2.401,-3.0664 c -1.333,-1.73346 -2.398,-3.73323 -2.398,-4.53323 0,-0.8 -0.801,-2.2664 -1.867,-3.0664 -0.934,-0.8 -2.133,-4.26628 -2.533,-7.59961 -0.8,-7.6 -3.734,-11.19987 -6.934,-8.53321 -2.667,2.13334 -4.667,0.53229 -6.934,-5.73437 -0.8,-2.4 -1.599,-3.2 -1.599,-2 -0.134,2.4 -2.133,3.33398 -3.067,1.33398 -0.266,-0.53333 -2.533,-2.80026 -5.066,-4.93359 -4.8,-4.13333 -4.667,-3.99961 3.199,6.40039 l 4.801,6.5332 v 16 c 0,15.60004 -0.134,16.00004 -2.4,14.00004 -3.867,-3.6 -5.067,-2.6675 -1.467,1.1992 1.733,1.8666 3.199,4.9341 3.199,6.8008 0.133,2.8 -0.133,2.9325 -1.467,1.1992 -0.8,-1.2 -1.733,-2.1328 -2.133,-2.1328 -0.266,0 -0.133,4.2662 0.401,9.5996 1.6,13.8666 -0.267,15.3329 -4.533,3.5996 -3.867,-10.8 -3.467,-12.2665 3.599,-14.5332 3.334,-1.0667 2.667,-1.1988 -4.533,-0.7988 -4.8,0.2666 -9.601,0.9334 -10.801,1.4668 -1.866,0.6666 -2.4,-0.3997 -3.066,-5.5997 -1.2,-8.1333 -4.933,-21.60035 -6.133,-22.40035 -0.533,-0.4 -1.066,8.13206 -1.199,18.79885 -0.134,11.0666 -0.935,20.8013 -1.735,22.668 -1.466,3.1994 -1.599,3.0661 -3.732,-3.8672 -1.2,-3.8667 -4.401,-11.4675 -7.201,-16.8008 l -4.934,-9.73244 3.467,-5.4668 c 1.867,-3.06666 4.402,-7.06692 5.602,-8.93359 1.333,-1.86667 -0.401,-0.93294 -3.868,2.40039 l -6,5.73242 -1.599,-6.39844 c -4.8,-19.2 -12.002,-23.86718 -12.135,-7.86718 v 3.86718 l -2.934,-2.66796 c -5.866,-5.2 -6.533,-4.66602 -2,1.33398 4.134,5.33333 4.668,7.06693 5.334,16.93359 0.534,8.53335 0.266,12.00015 -1.334,15.46685 -2.533,5.1994 -3.731,4.9332 -4.931,-1.4668 -1.867,-9.6 -3.467,-6.1338 -3.467,7.5996 0,7.6 -0.801,16.3996 -1.867,19.5996 l -1.735,6 -0.798,-7.334 c -1.6,-12.6667 -1.068,-35.1998 0.798,-37.0664 1.334,-1.46679 1.334,-1.73361 0,-0.93361 -1.2,0.66671 -1.732,-0.13268 -1.732,-2.66602 0,-4.66666 -1.734,-2.93382 -3.867,3.59963 -2.667,8.4 -13.066,16.1347 -13.6,10.1347 -0.133,-0.9333 -4.133,-5.2015 -8.933,-9.6015 -4.8024,-4.40012 -8.2676,-7.33322 -7.8676,-6.53322 0.4,0.8 2.9349,4.66644 5.6016,8.53322 4.667,6.9333 4.667,7.0669 2,8.9336 -1.4667,1.0666 -2.668,3.0665 -2.668,4.5332 0,1.4666 -0.9323,2.5346 -2.2656,2.668 -1.4667,0 -1.7346,0.3988 -0.668,0.7988 1.8667,0.6666 2.2671,13.2009 0.4004,14.2676 -0.6667,0.4 -1.4667,-2.8012 -2,-7.2012 -0.9333,-8.5333 -4.3995,-21.3326 -6.1328,-23.1992 -0.6667,-0.5334 -0.7999,3.8666 -0.5332,10 0.6667,11.2 0.6661,11.1998 -1.8672,8.5332 -2.1333,-2.1334 -2.9329,-5.3334 -3.5996,-16 L 981.0664,93.08398 986,85.75195 l 5.0664,-7.33398 -4.9336,4.5332 -4.7988,4.66602 V 76.41797 c 0,-14.53333 -1.868,-12.66732 -4.668,4.66601 -2,12.53334 -2.9334,14.66764 -9.4668,23.20122 -0.2666,0.2666 -1.5988,-0.2674 -2.7988,-1.334 -2.1333,-1.6 -2.2675,-1.5991 -0.8008,0.2676 1.4667,1.7328 0.5337,3.0656 -5.5996,8.2656 -7.0667,6.1333 -8.7999,7.2011 -8.5332,5.2011 0.1333,-0.5333 0.1333,-6.4002 0,-12.9335 C 949.3335,95.3517 948.8,92.4181 948,93.88477 c -1.4667,2.53333 -4.6667,16.26623 -6,25.59963 l -0.8008,6.4004 -8,-8.666 c -4.4,-4.8 -10.3987,-10.5336 -13.332,-12.9336 l -5.334,-4.2676 6.4004,8.5332 c 3.4667,4.6666 8.5325,12.6672 11.1992,17.8672 l 4.8008,9.334 -4.2676,6.9335 -4.2656,7.0665 -3.0664,-5.4668 c -1.6,-3.0667 -5.8673,-9.3339 -9.334,-13.8672 -6.2667,-8.2667 -6.2659,-8.4002 -7.1992,-21.4668 -0.5334,-7.2 -1.2011,-15.19964 -1.7344,-17.59964 -0.6667,-4 -0.3996,-4.40039 4.4004,-6.40039 2.8,-1.2 7.0668,-2.39883 9.4668,-2.79883 2.4,-0.4 4.7997,-1.20104 5.0664,-1.73437 0.2667,-0.53333 -1.9997,-0.53386 -5.0664,0.13281 -3.0667,0.53333 -7.8665,1.06784 -10.5332,1.20117 -4.4,0 -5.0664,-0.39974 -5.0664,-3.0664 -0.1333,-1.6 -0.9333,-4.80026 -2,-6.9336 -1.7333,-3.86666 -1.7339,-3.86718 -1.8672,4.13282 -0.1333,7.86666 -0.2673,8.13289 -3.334,7.59961 -2.4,-0.53334 -3.8661,0.3996 -6.1328,3.5996 -1.6,2.26667 -2.6676,4.40079 -2.2676,4.80079 0.2667,0.26666 1.6008,-0.9336 2.8008,-2.9336 4,-5.86666 3.8672,-2.53398 -0.1328,4.66602 -2,3.73333 -4.4007,6.80081 -5.334,6.80081 -0.9333,0 -1.3336,0.801 -0.9336,1.7343 0.4,1.0667 -0.5328,4.6662 -2.1328,8.1329 -2.5333,5.8666 -2.9342,6.4001 -6.2676,5.4668 -3.6,-0.8 -3.5992,-0.801 -1.1992,1.7324 2,2.2666 2.1341,3.201 0.8008,5.7344 -1.6,2.7994 -1.7331,2.7998 -3.0664,0.5332 -0.6667,-1.3334 -1.3345,-6.8006 -1.2012,-11.8672 l 0.1328,-9.4668 -2.3984,7.1992 c -1.3334,4 -2.8012,6.6667 -3.2012,6 -1.7333,-3.0667 -3.732,-35.86629 -3.332,-57.59962 l 0.3984,-23.59961 -5.7324,-8.40039 c -3.2,-4.66667 -6.2669,-9.73203 -6.9336,-11.33203 -1.0667,-2.8 -1.1992,-2.80091 -1.1992,-0.26758 -0.1334,1.46667 0.9328,9.99974 2.1328,19.06641 1.7333,12.79994 1.866,16.93463 0.666,18.66796 -7.3333,10.4 -8.7997,14.26537 -9.0664,23.33204 -0.4,12.26661 -2.2664,14.00039 -5.0664,4.40039 -1.2,-4.13334 -2.3994,-7.4668 -2.666,-7.4668 -0.2667,0 -0.2672,4.66706 0.1328,10.40039 0.5333,8.13333 0.2655,10.66667 -1.2012,12 -1.7333,1.33333 -2.3989,1.06706 -4.2656,-1.59961 -2.1333,-3.33333 -7.0669,-5.20078 -16.9336,-6.80078 l -4.9336,-0.66602 -0.9336,-23.46679 c -0.5333,-12.8 -1.2001,-23.06745 -1.4668,-22.80078 -1.8666,1.73328 -4.6666,23.59966 -6,45.5996 -0.8,13.86667 -1.7333,25.60052 -2,25.86722 -0.4,0.4 -4.1332,6e-4 -8.5332,-0.666 -9.6,-1.6 -9.0669,-0.5339 1.0664,2.1328 l 7.6016,2 0.3984,18.5332 c 0.2667,17.3333 -0.3996,22.1328 -3.5996,22.1328 -0.5333,0 -2.4,-4.3991 -4,-9.7324 -3.2,-9.8667 -11.867,-28.1332 -16.4004,-34.5332 L 773.1992,107.084 778,97.61719 c 5.2,-10.4 11.1999,-19.73177 14.5332,-22.39844 1.2,-1.06667 2.1328,-2.40117 2.1328,-3.20117 0,-1.73334 -12.5332,10.00065 -20.5332,19.33398 l -6.5332,7.59961 -5.7324,-6.93359 c -3.2,-3.86667 -8.9341,-9.60026 -12.8008,-12.9336 l -6.9336,-6 5.4668,7.33399 c 3.0667,4 7.6009,11.33281 10.2676,16.13281 l 4.7988,8.80082 -6.3984,12.5332 c -3.6,6.9333 -7.2015,14.533 -8.1348,17.0664 -1.2,3.6 -1.8664,4.2664 -3.0664,3.0664 -1.3333,-1.3334 -1.2005,-2.266 0.1328,-4.666 1.7334,-2.6667 1.7349,-2.7998 -0.3984,-1.0664 -1.8667,1.6 -2.5348,1.4653 -4.1348,-0.668 -2.9333,-3.7333 -3.0652,-5.4665 -3.8652,-36.53322 -0.6667,-27.06661 -3.4681,-53.99934 -6.1348,-58.66601 -0.8,-1.2 -1.332,2.79922 -1.332,11.19922 0,14.8 -2.6668,65.20001 -3.4668,66.00001 -0.2667,0.2667 -1.7345,-0.5319 -3.2012,-1.8652 -1.4667,-1.3334 -2.666,-1.8665 -2.666,-1.0665 0,0.6667 1.1993,2.3991 2.666,3.7325 2.2667,2 2.6666,3.9998 2.5332,12.5332 -0.1333,5.6 -0.6659,11.8661 -1.1992,14.1328 -0.9333,3.6 -1.0659,3.3349 -1.1992,-2.3985 0,-3.4666 -0.6673,-6.2675 -1.334,-6.2675 -0.6667,0 -1.8675,-3.0675 -2.8008,-6.8008 -0.9333,-3.7333 -4.2668,-11.7333 -7.4668,-18 l -5.7324,-11.19923 3.4668,-2.5332 c 1.8667,-1.46667 5.3338,-3.06628 7.8672,-3.59961 2.5333,-0.4 4.9334,-1.46758 5.4668,-2.26758 0.4,-0.66667 0.2648,-0.9332 -0.5352,-0.5332 -0.6666,0.39994 -5.3323,1.46757 -10.2656,2.26757 l -9.0664,1.4668 -10,-10.80078 c -5.4667,-5.86667 -10.6668,-10.66602 -11.4668,-10.66602 -0.8,0 -0.1327,1.3336 1.334,2.9336 3.3333,3.6 12.3984,18.53229 12.3984,20.26562 0,0.8 -1.1993,3.9e-4 -2.666,-1.59961 -5.7333,-6.13333 -7.7328,-2.93243 -10.1328,17.33394 -1.6,12.4 -3.0667,18.3999 -6,24.5333 -2.1333,4.3994 -3.8672,8.7996 -3.8672,9.5996 0,0.8 -0.534,1.7323 -1.334,2.2656 -3.2,2 -7.9995,-16.5324 -6.1328,-23.8652 0.4,-1.7334 3.3337,-6.4004 6.4004,-10.4004 5.3333,-6.8 4.3988,-6.8 -3.2012,0 l -3.5996,3.1992 -0.9336,-4.7988 c -1.0666,-5.7334 -0.132,-14.93482 2.668,-28.13482 2.6667,-12.4 2.7989,-37.86679 0.2656,-41.46679 -2,-2.53334 -2,-2.5319 -4,0.13476 -1.0667,1.46667 -3.1993,6.8 -4.666,12 -2.4,8.4 -2.6672,11.73282 -1.8672,34.13282 0.4,13.6 0.4005,27.59973 -0.1328,31.06643 l -1.0664,6.4004 -5.2012,-5.0664 c -2.9333,-2.8 -6.6665,-8.2662 -8.5332,-12.1329 -8.2667,-18.13309 -11.8667,-20.66806 -30,-22.13472 L 602,83.35156 l 6.666,1.86719 c 10.2667,3.06667 12.4008,4.1319 14.8008,7.86523 2.2667,3.46667 2.2668,3.46657 -4.5332,10.00002 -3.7333,3.4667 -8.5341,8.9348 -10.8008,12.1348 L 604,120.8184 v -6.4004 c 0,-5.6 0.6668,-7.3336 5.4668,-12.9336 6.1333,-7.33346 6.5332,-9.99911 0.5332,-3.73245 -4.5333,4.80005 -5.9995,5.06695 -6.1328,0.9336 -0.1333,-2.13334 -0.5344,-1.59975 -1.7344,1.99995 -2,6.8 -4.1321,8.6652 -6.7988,6.3985 -3.0667,-2.5333 -6.2668,1.0676 -7.4668,8.2676 l -0.8008,5.7324 -0.2656,-7.332 c -0.2667,-6.9334 -0.2667,-7.2 -2,-4 -1.0667,1.8666 -2.5335,6.932 -3.4668,11.332 -0.9333,4.4 -1.8681,8.801 -2.1348,9.7344 -0.4,1.3333 -2.2656,0.5339 -6.2656,-2.6661 l -5.5996,-4.4003 4.9336,5.8652 c 2.8,3.3333 5.0664,6.4002 5.0664,6.9336 0,0.5333 -2.0004,5.0681 -4.4004,10.1347 -2.5333,4.9334 -5.3332,11.1991 -6.5332,13.7325 l -2,4.5332 -3.334,-5.8672 c -3.3333,-5.8667 -3.4656,-6.932 -4.2656,-37.332 -0.6667,-28.26696 -2.8005,-49.60135 -5.8672,-60.66802 -0.8,-2.8 -1.4662,4.53399 -2.1328,23.33399 -0.8,24.13333 -2.9343,49.06653 -4.2676,50.53323 -0.9333,1.0666 -19.0665,-15.9998 -24.5332,-23.0664 -5.3333,-7.0667 -5.4667,-7.5995 -4,-12.13285 1.8667,-5.73333 5.6004,-8.26679 16.4004,-11.46679 L 540.666,85.88477 532,86.55078 c -13.0667,1.2 -18.1339,2.80117 -21.8672,7.20117 -1.7333,2.26667 -3.7328,3.46602 -4.1328,2.66602 -0.4,-0.66667 -2.1324,-2.00078 -3.7324,-2.80078 -2.8,-1.46667 -2.8011,-1.46667 0.2656,2 l 3.1992,3.46679 -4.9316,10.53322 c -2.6667,5.7333 -6.0007,14.4017 -7.334,19.0683 l -2.4004,8.3985 -1.5996,-5.7324 c -1.4667,-4.9334 -1.3329,-6.2667 0.4004,-8.1328 3.0667,-3.3334 2.6663,-5.0676 -0.4004,-2.2676 -2.5333,2.2666 -2.5335,2.1334 -3.4668,-6.5332 -0.5333,-4.9334 -0.6661,-19.20055 -0.1328,-31.86722 l 0.9336,-22.79883 -4.4004,-7.20117 c -2.4,-3.86667 -5.734,-9.33333 -7.334,-12 C 472.3997,36.28411 472,36.15169 472,38.81836 c 0,1.73333 1.4673,12.79935 3.334,24.66602 4,26.66661 4.2655,30.66732 2.7988,52.26762 -1.0667,16.4 -1.3325,17.5997 -5.1992,23.0664 -3.6,4.9333 -4.4012,5.4673 -5.2012,3.3339 -0.5333,-1.3333 -3.3323,-8.0007 -6.2656,-14.8007 -4.9333,-11.4667 -5.3327,-13.1994 -4.666,-20.6661 l 0.7988,-8.26753 -2.9336,4.66603 -2.9336,4.5332 -3.1992,-3.8652 c -1.7333,-2.2667 -3.1992,-4.40083 -3.1992,-4.80083 0,-2.13333 -7.4677,-5.33333 -13.7344,-6 -5.8667,-0.53333 -6.3996,-0.39922 -3.5996,0.80078 11.0667,4.8 14.534,14.66585 15.334,43.19925 0.4,11.7333 0.2657,27.0666 -0.2676,34 -0.8,12 -1.0659,12.8006 -5.1992,17.334 -6.8,7.2 -7.4665,4.7994 -6.5332,-19.8672 0.4,-11.3334 1.0663,-24.534 1.5996,-29.334 0.6667,-8.1333 0.5332,-8.5333 -1.4668,-6 l -2.1328,2.668 0.7988,-2.668 c 0.6667,-2.5333 0.6675,-2.5318 -1.1992,-0.3985 -1.7333,2.2667 -4.8012,14.9325 -7.2012,29.7325 -0.9333,6.2666 -1.0652,6.0006 -1.8652,-6.666 -1.2,-18.1334 -1.4676,-58.66776 -0.2676,-59.73442 0.4,-0.53334 2.3995,0.4 4.1328,2 l 3.334,3.06642 -1.5996,-2.93166 c -0.8,-1.6 -2.1336,-3.33385 -2.9336,-3.86718 -1.0667,-0.53334 -0.9324,-1.2 0.2676,-2 1.3333,-0.8 0.7984,-1.20118 -1.6016,-1.20118 -4.2666,0 -6.2653,2.13477 -7.332,8.13477 -0.5333,2.93335 -3.3344,7.19855 -7.7344,11.86525 -12.2667,12.9333 -18.9329,24.1337 -25.5996,42.4004 l -3.1992,8.9336 0.5332,-16 c 0.6667,-19.4667 3.7336,-34.5331 8.9336,-45.0664 2.2666,-4.2669 3.7334,-8.13324 3.4668,-8.53324 -1.0667,-0.93333 -8.6683,10.79924 -13.6016,21.19924 -2.5333,5.3333 -4.7988,9.3331 -4.7988,9.0664 -0.1333,-0.4 -0.9344,-13.5987 -1.7344,-29.33205 -1.4667,-26.93333 -1.5997,-28.26718 -3.0664,-21.86718 -3.6,15.2 -5.3324,36.26653 -5.7324,68.53323 -0.2667,19.0666 -0.5335,21.7327 -1.4668,14.666 -0.5333,-4.8 -1.0664,-20.9324 -1.0664,-35.8652 0,-14.9334 -0.268,-27.46724 -0.668,-27.86724 -1.2,-1.06666 -3.7337,6.66579 -4.4004,13.19924 -0.6666,6 -0.6656,6.0009 -6.2656,6.2676 -8.8,0.5333 -14.0007,2.799 -17.334,7.7324 l -3.0664,4.5332 -2.666,-3.0664 c -3.8667,-4.1334 -6.133,-22.66526 -3.5996,-27.86526 2.4,-4.66666 2.2652,-6.40117 -0.1348,-3.20117 -1.7333,2.26667 -1.8655,2.00065 -2.7988,-2.66601 -0.4,-2.93334 -1.7336,-6.26628 -2.9336,-7.59961 -2,-2.13334 -2.1336,-2.1349 -4.9336,0.39843 L 307.0664,81.88477 302,74.15234 c -2.8,-4.26666 -6.0003,-9.20169 -6.9336,-11.06836 -1.7333,-3.33333 -1.7324,-3.33229 -1.7324,-0.26562 0,1.6 1.1988,11.19974 2.7988,21.06641 1.4667,10 2.5348,18.39933 2.1348,18.66603 -0.2667,0.4 -2.5341,-0.9322 -4.8008,-2.79885 -3.2,-2.8 -4.1342,-4.66705 -4.2676,-8.40039 l -0.1328,-4.93359 -1.7324,4.13281 c -1.0667,2.26667 -2.8005,4.80104 -3.8672,5.73438 -1.8667,1.46666 -2.1328,1.46536 -2.1328,-0.66797 -0.1333,-1.46667 -0.9333,-4.39987 -2,-6.53321 -1.8667,-3.86666 -1.8679,-3.7319 -1.2012,4.13477 l 0.8008,8.13285 -7.4668,7.0664 c -4.1333,3.8666 -7.4668,7.8664 -7.4668,9.0664 0,1.2 -0.8004,1.6002 -2.4004,0.9336 -1.2,-0.5334 -5.5996,-1.4662 -9.5996,-2.1328 -4,-0.6667 -7.4658,-1.7332 -7.7324,-2.5332 -0.5334,-1.6 -1.7345,-2.7997 -9.2012,-9.5997 -3.0667,-2.6666 -5.7333,-6.00061 -6,-7.33394 -0.4,-1.73333 -1.0667,-1.06771 -2,2.26562 l -1.1992,4.66802 -1.5996,-6.00005 C 221.2009,86.28529 220,86.95115 220,100.418 l -0.1328,12.666 -4.5332,2.1348 c -4.5333,2.1328 -4.668,2.132 -4.668,-0.668 0,-2.5334 -0.266,-2.3988 -2.666,1.2012 l -2.5332,3.8652 -2.1328,-4.9317 c -1.0667,-2.6666 -2,-5.5998 -2,-6.5332 0,-3.0666 -4.2668,-19.06701 -5.4668,-20.40035 -0.8,-0.66666 -0.9337,1.33308 -0.4004,5.06641 0.5333,3.46667 0.5323,6.26562 0.2656,6.26562 -1.2,0 -7.7324,-10.5332 -7.7324,-12.5332 0,-1.06667 -2.7995,-5.99979 -6.1328,-11.0664 -3.3333,-4.93334 -6.6679,-10.26576 -7.2012,-11.73243 -2.1333,-5.06666 -1.4661,4.53373 1.8672,24.40039 2.8,17.99996 2.9327,19.06656 0.666,18.53316 -2.1333,-0.5333 -2.1329,-0.2669 0.4004,3.0665 2.5333,3.6 2.6672,4.9335 1.8672,20.9335 -0.4,9.3334 -0.7994,21.0667 -0.666,26 0.1333,18.5334 -3.7335,5.8652 -5.4668,-17.6015 -2,-28.5333 -2.5339,-29.866 -11.8672,-32.666 l -3.334,-1.0664 3.5996,4.2656 c 3.6,4.2667 3.6016,4.5342 3.6016,24.2676 0,12.4 -0.534,19.8672 -1.334,19.8672 -0.6667,0 -1.334,-0.6663 -1.334,-1.5997 0,-0.8 -3.332,-7.3351 -7.332,-14.5351 -4,-7.0667 -7.334,-14.3995 -7.334,-16.1328 0,-1.8667 -1.1999,-7.8668 -2.5332,-13.4668 l -2.666,-10.13283 3.4668,-8.9336 c 2,-4.93333 6.1315,-12.93242 9.4648,-17.73242 l 5.8672,-8.5332 -5.332,4.5332 c -9.4667,8.13333 -18.4015,19.19857 -24.1348,29.86523 l -2.7988,5.33402 -0.1348,-19.33402 c -0.1333,-19.2 -0.1333,-19.33333 -2,-12 -1.8666,7.33334 -6.1319,38.40172 -7.8652,57.06832 -0.5333,5.3334 -1.2016,9.4659 -1.6016,9.1993 -0.8,-0.9334 -3.9992,-51.33428 -5.1992,-82.26762 -1.0667,-27.99994 -1.7335,-28.93268 -5.4668,-6.66601 -1.4667,9.06667 -2.266,26.93373 -2.666,63.33403 l -0.668,50.5332 -2.3984,-9.2012 c -2.80012,-10.9333 -8.66811,-27.3323 -12.13478,-34.2656 -3.46667,-6.8 -3.33307,-7.867 2.93359,-14.9336 6.4,-7.33352 5.73477,-7.86698 -1.86523,-1.4668 -2.93334,2.5333 -5.86758,4.666 -6.26758,4.666 -0.53333,0 -3.20052,-3.6 -5.86719,-8.00002 -5.06666,-8.13333 -24.53307,-29.73281 -29.0664,-32.13281 -1.46667,-0.8 1.3e-4,2.00039 3.46679,6.40039 3.2,4.4 8.53386,13.19909 11.86719,19.73242 l 6,11.86722 -8.66797,9.4668 c -4.66666,5.0666 -10.79818,12.8002 -13.46484,16.9336 -2.66667,4.2666 -5.20156,7.7324 -5.60156,7.7324 -0.4,0 -0.80026,-1.3331 -0.9336,-3.0664 -1.33333,-23.0667 -2.13151,-28.9324 -3.46484,-27.7324 -1.2,0.9333 -1.60104,-0.6663 -1.73438,-5.5997 0,-3.86637 -0.93281,-8.6674 -2.13281,-10.80073 -1.86667,-3.46667 -2.00078,-0.93341 -2.80078,33.46683 -0.53333,20.4 -1.33385,39.1991 -1.86719,41.7324 -0.8,4.4 -0.9319,4.534 -1.86523,1.334 -0.53334,-1.8667 -1.06641,-5.7327 -1.06641,-8.666 -0.13333,-2.9334 -1.33463,-10.8007 -2.66797,-17.334 -1.33333,-6.6667 -2.93346,-19.8673 -3.46679,-29.334 -1.6,-31.46673 -7.06589,-61.46663 -7.19922,-40.00002 -0.13334,14.53334 -1.73269,32.66762 -2.66602,32.13482 -0.53333,-0.4 -0.933593,9.7322 -0.933592,22.2656 0,12.6666 -0.533073,27.7329 -1.066407,33.5996 l -1.201172,10.668 -2.40039,-9.334 C 0.2658851,142.6846 0.1328125,143.4849 0.1328125,233.3516 l -0.09375,91.0507 C 633.9337,324.3886 102.2525,324.4222 858,324.418 h 848.666 l -0.133,-103.7325 -0.133,-103.6015 -3.466,11.6015 c -1.867,6.4 -3.601,11.4659 -3.868,11.1993 -0.8,-0.6667 -4.132,-54.26748 -5.199,-82.80082 -1.066,-27.46661 -1.734,-27.99869 -5.334,-3.33203 -1.466,9.6 -2.267,29.33199 -2.801,63.33205 -0.666,43.8666 -0.933,48.5346 -2.533,42.668 -0.933,-3.7334 -1.866,-14.6671 -2,-24.4004 -0.133,-9.7334 -0.665,-17.3327 -1.332,-16.6661 -0.533,0.5334 -1.867,4.2662 -2.933,8.1329 l -1.735,7.0664 -3.732,-8.5332 c -4.934,-11.6 -17.333,-30.53376 -26.533,-40.40043 -4.134,-4.53333 -7.6,-8.93242 -7.6,-9.73242 0,-2.93333 10.933,-23.4681 17.066,-32.13477 l 6.266,-8.66601 -7.066,6 c -21.2,18 -37.199,45.46597 -47.733,82.66603 l -3.201,11.334 0.533,-19.334 c 1.032,-35.41093 -1.976,-91.96015 -5.381,-109.703141 h -0.9 c -0.542,-2.07e-4 -1.085,-9.7e-5 -1.627,0 z M 857.2461,67.75 c 0.033,0.0158 0.063,0.0598 0.088,0.13477 0.5333,1.33333 0.6665,3.59974 0.5332,5.0664 -0.1333,1.6 -0.4004,9.33451 -0.4004,17.20117 -0.1333,10.53336 -0.5344,14.39996 -1.7344,13.99996 C 851.8653,102.819 851.6,99.35078 854,82.55078 c 1.375,-8.75 2.75,-15.0376 3.2461,-14.80078 z m 708.3539,5.33398 1.734,7.33399 c 1.067,4 1.867,7.73281 2,8.13281 0,0.53333 -0.933,1.20104 -2,1.73438 -1.6,0.53333 -2.001,-0.80092 -1.867,-8.26758 z m -87.596,0.0996 c 0.71,-0.14239 0.662,1.31596 0.02,4.4336 -1.067,4.8 -2.134,5.73424 -4.534,4.26758 -1.467,-0.93334 -1.065,-2.00066 1.334,-5.33399 1.575,-2.1 2.614,-3.2291 3.184,-3.36719 z M 1400,76.41797 c 0.8,0 1.334,0.93281 1.334,2.13281 0,1.06667 -0.534,1.60117 -1.334,1.20117 -0.667,-0.4 -1.334,-1.33476 -1.334,-2.13476 0,-0.66667 0.667,-1.19922 1.334,-1.19922 z m 235.732,4 c 0.534,0 2.802,3.20026 5.069,6.93359 7.466,12.4 12.798,26.13414 11.332,28.80074 -2,3.7334 -5.467,23.8653 -5.467,31.8653 0,6.1333 -0.265,7.2005 -1.865,5.8672 -1.467,-1.2 -2.001,-1.2006 -2.401,0.1328 -0.266,0.8 -2.534,-1.7319 -4.8,-5.8653 -2.4,-4.1333 -6.401,-9.0674 -8.934,-10.9335 -5.6,-4.4 -5.733,-5.6015 -1.467,-26.1348 3.6,-17.73345 7.2,-30.66603 8.533,-30.66603 z m -521.781,0.44922 c 0.215,-0.007 0.465,0.0668 0.715,0.21679 0.8,0.4 1.334,1.4681 1.334,2.13477 0,0.8 -0.534,0.9332 -1.334,0.5332 -0.667,-0.4 -1.332,-1.4681 -1.332,-2.13476 0,-0.5 0.259,-0.73828 0.617,-0.75 z m -803.2655,0.10937 c 1.1736,0.20032 2.3262,4.02149 2.5137,11.70899 0.1334,6.66666 -2.1333,13.46565 -4,12.26565 -0.6666,-0.4 -1.1992,-5.3331 -1.1992,-11.06643 0,-8.7125 1.3556,-13.13523 2.6855,-12.90821 z m 1084.5135,1.44141 1.069,4 c 0.533,2.26667 1.465,7.6 1.865,12 0.666,6.53333 0.401,8.40053 -1.332,9.86723 -1.2,0.9333 -2.134,3.066 -2.268,4.666 -0.266,8 -1.999,7.6004 -5.599,-1.5996 -2,-5.0667 -3.6,-9.7343 -3.6,-10.2676 0,-0.6667 2.267,-5.06525 4.934,-9.86525 z m 76.082,1.27539 c 0.119,-0.008 0.239,-0.008 0.362,0.002 0.281,0.0221 0.574,0.0895 0.89,0.18946 1.467,0.53333 2.933,1.06588 3.199,1.19921 0.267,0.26667 -0.131,3.73438 -0.931,7.73438 -0.667,4 -1.734,13.33209 -2.268,20.79879 -0.533,7.4667 -1.332,13.4668 -1.732,13.4668 -0.4,0 -1.869,-2.533 -3.069,-5.5996 -1.333,-3.0667 -2.665,-5.2003 -2.931,-4.9336 -0.4,0.2666 -0.134,8.1346 0.533,17.2012 0.667,9.2 1.332,20.7985 1.332,25.8653 v 9.2012 l -3.467,-5.2012 c -6.8,-9.8668 -7.999,-11.1982 -9.732,-9.4649 -0.8,0.8 -1.467,0.9328 -1.467,0.1329 0,-0.8001 0.799,-2.1336 1.732,-3.0664 1.334,-1.3334 1.201,-1.4675 -0.666,-0.8008 -3.733,1.4666 -4.267,-2.2671 -2.4,-16.4004 1.867,-14.4 5.333,-24.6671 13.467,-40.40046 3.937,-7.54688 5.365,-9.79935 7.148,-9.92383 z m -660.0525,3.78711 c 0.3489,0.009 0.7797,0.12148 1.3047,0.27148 1.4667,0.53334 4.2661,1.86589 6.1328,3.19922 1.8667,1.2 4.8004,5.20078 6.4004,8.80078 3.0667,6.26665 3.0675,6.53345 0.8008,11.46685 -1.2,2.9328 -2.8001,5.1992 -3.4668,5.1992 -0.5333,0 -1.0664,0.9333 -1.0664,2 0,1.2 -1.9998,2e-4 -5.0664,-3.0664 -5.0667,-5.0667 -5.2005,-5.4675 -5.8672,-16.80082 -0.65,-9.20833 -0.6839,-11.10967 0.8281,-11.07031 z m 649.1385,0.0801 c 0.324,-0.0182 0.566,0.0414 0.699,0.1914 0.267,0.26667 -0.533,2 -1.867,4 -1.466,2.13334 -2.666,2.93334 -3.199,2 -0.533,-0.93333 -2.933,1.46524 -6,5.86524 -2.8,4.13329 -5.333,7.46679 -5.467,7.46679 -0.533,0 3.467,-8.6664 6,-13.0664 1.284,-2.45 7.568,-6.32943 9.834,-6.45703 z m 25.365,0.85742 c 0.534,0 2.268,2.79948 3.735,6.13281 4,9.0666 8.8,33.4668 10.533,53.4668 1.733,20.9333 0.8,25.601 -4.934,25.7344 -2,0 -2.266,-25.4676 -0.666,-42.2676 0.8,-7.7334 0.666,-9.3328 -0.668,-8.1328 -1.333,1.0666 -1.732,0.5329 -1.732,-2.4004 l -0.133,-3.8672 -1.599,3.8672 c -1.6,3.4666 -1.869,2.2662 -3.602,-14.4004 -1.067,-10.0001 -1.467,-18.13281 -0.934,-18.13281 z m -1297.3316,3.33398 3.8672,8 c 3.7333,7.73333 3.7329,8.53263 3.5996,28.66603 -0.1333,24.9333 -0.934,29.0666 -3.334,18 -4.2667,-19.3334 -5.8669,-33.4667 -4.9336,-44 z m 923.4666,0 2,4.53321 c 1.2,2.4 2.133,6.66532 2.133,9.33202 0,2.6667 -0.667,5.7341 -1.334,6.8008 -0.933,1.4666 -1.332,0.7992 -1.332,-2.8008 0,-2.6667 -0.267,-7.732 -0.801,-11.33202 z M 689.8164,92.8008 c 0.5167,0.0833 1.2512,0.68477 2.4512,1.88477 l 2.7988,2.79883 -3.1992,5.2011 -3.2012,5.0665 -0.3984,-5.8672 c -0.2667,-3.20016 -0.1349,-6.6672 0.3984,-7.8672 0.3333,-0.86667 0.6337,-1.30013 1.1504,-1.2168 z m 154.8809,0.14453 c 0.9937,-0.0937 1.9687,4.40605 1.9687,10.40627 0,4.2666 -0.5325,7.7324 -1.1992,7.7324 -1.3333,0 -2.6677,-12.53177 -1.7344,-16.39843 0.3,-1.16667 0.6336,-1.70899 0.9649,-1.74024 z M 1570,94.81836 l 0.934,4.40039 c 0.4,2.39995 0.665,4.79865 0.265,5.33205 -0.8,1.4666 -5.865,2.3997 -5.865,1.0664 0,-0.5333 1.066,-3.3333 2.266,-6.00001 z m -944.5332,4.26562 c 0.4,0 1.1996,4.00022 1.5996,8.93362 1.3333,13.3333 1.0673,22.2665 -0.666,34.5332 l -1.5996,10.9336 -3.0684,-2 c -1.7333,-1.0667 -3.0664,-2.9334 -3.0664,-4 0,-1.0667 -0.5325,-1.5998 -1.1992,-1.0664 -0.6667,0.4 -1.5995,0.134 -2.1328,-0.666 -0.4,-0.6667 -2.1344,-2.0008 -3.7344,-2.8008 -2.8,-1.6 -2.7999,-1.467 -0.5332,1.0664 1.2,1.4666 2.2676,4.4013 2.2676,6.6679 0,5.0667 -3.8673,16.6658 -5.334,15.7325 -1.4667,-0.9334 -0.6674,-23.2 1.1992,-32 2.2667,-11.3334 6.5347,-21.867 12.668,-30.9336 1.4667,-2.4 3.1996,-4.40042 3.5996,-4.40042 z M 290.666,100.418 c 0.8,0 1.334,0.534 1.334,1.334 0,0.6666 0.7991,1.332 1.7324,1.332 3.0667,0 5.868,4.4004 6.668,10.4004 0.5333,4.8 0.3988,5.4661 -1.2012,4.1328 -1.4666,-1.2 -1.7331,0.2682 -1.0664,9.6016 0.5333,7.8661 0.4007,10.6658 -0.666,9.1992 -0.9333,-1.4667 -1.8677,0.1327 -3.7344,6.666 l -2.3984,8.668 -0.8008,-14.668 c -1.3333,-23.7333 -1.3339,-36.666 0.1328,-36.666 z m 932.768,1.6699 c 0.05,0.01 0.107,0.031 0.166,0.064 0.8,0.5334 1.732,6.3993 2.132,13.1993 0.534,6.8 0.401,17.4657 -0.265,23.7324 l -1.067,11.334 -0.267,-16.1328 c 0,-8.9334 -0.533,-19.8666 -1.067,-24.5332 -0.5,-5.25 -0.414,-7.8047 0.368,-7.6641 z m -993.9672,0.3301 3.1992,4 c 2.8,3.4666 2.9331,4.133 1.0664,5.0664 -2.5333,1.4666 -4.3989,-0.9324 -4.2656,-5.7324 z m 1076.9432,0.416 c 0.651,0.066 1.611,2.5058 2.924,7.3183 1.6,6 1.6,6.6654 -1.066,9.3321 l -2.934,2.8008 V 111.752 c 0,-6.0209 0.339,-8.9933 1.076,-8.918 z m -453.7909,0.709 c 0.3711,0 0.9641,0.591 1.9141,1.541 2.2667,2.4 2.6664,5.0677 3.0664,21.7344 0.2667,10.4 0.1344,18.9336 -0.2656,18.9336 -2.9333,0 -5.3347,-25.6007 -2.668,-27.334 2.1333,-1.3334 1.6007,-3.3332 -0.666,-2.5332 -1.6,0.6666 -2,-0.5343 -2,-6.2676 0,-4.4167 7e-4,-6.0716 0.6191,-6.0742 z m -711.3222,1.5078 c 1.1276,-0.1622 1.8026,7.0881 0.8359,10.834 -0.5333,1.7333 -1.467,3.1992 -2.4004,3.1992 -1.6,0 -0.5321,-10.9324 1.2012,-13.7324 0.125,-0.1875 0.2466,-0.284 0.3633,-0.3008 z M 278,105.3516 l 0.4004,8.5332 c 0.2667,4.6666 -4e-4,12.3997 -0.4004,17.0664 l -0.9336,8.5332 -2.9336,-5.1992 c -6.8,-12.2667 -6.9325,-12.8007 -1.1992,-21.334 z m 29.4551,0.9277 c 0.1625,-0.035 0.3449,0.01 0.5449,0.1387 0.6667,0.4 0.9337,1.5993 0.4004,2.666 -0.9333,2.8 -1.7344,2.5345 -1.7344,-0.7988 0,-1.1 0.3016,-1.8997 0.7891,-2.0059 z m 657.3457,1.0723 c 0.1333,0.2666 -1.6015,4.5329 -4.1348,9.5996 -2.4,4.9333 -5.1995,12.6669 -6.1328,16.9336 -0.9333,4.2666 -2.2674,7.8672 -2.8008,7.8672 -0.5333,0 -1.0664,-3.0675 -1.0664,-6.8008 0,-5.7334 0.9341,-8.134 6.8008,-17.334 3.7333,-5.8667 7.0673,-10.399 7.334,-10.2656 z m 605.7732,0.6367 c 0.813,-0.1178 1.134,2.013 1.959,8.4297 0.934,7.8666 0.8,11.7338 -1.066,19.8672 -4,17.0666 -4.666,16.5329 -4.666,-4.4004 -0.134,-17.2 0.132,-20.2666 2.265,-22.5332 0.667,-0.7917 1.139,-1.3098 1.508,-1.3633 z m -407.041,0.6465 c 0.734,-0.083 2.067,1.3169 3.934,4.1836 2.8,4.4 2.8,4.3989 0.4,14.2656 -1.466,5.3333 -2.801,10.1337 -3.201,10.4004 -0.4,0.4 -0.666,-3.7326 -0.666,-9.1992 0,-5.4667 -0.401,-12.1336 -0.801,-14.9336 -0.533,-3.0667 -0.399,-4.6335 0.334,-4.7168 z m -1092.33378,0.584 1.60156,3.8652 c 0.93333,2.2667 1.7319,4.801 1.86524,5.7344 0,0.9333 -0.6668,3.0665 -1.4668,4.5332 -1.2,2.1333 -1.73268,2.4002 -2.66602,0.9336 -0.8,-1.4667 -1.2,-1.3335 -2,0.5332 -0.66666,1.8666 -1.19935,1.9988 -2.66601,0.7988 -2.8,-2.2667 -2.26758,-5.3326 1.73242,-11.1992 z M 594.666,109.752 c 0.8,0 1.334,0.5325 1.334,1.1992 0,0.8 -0.534,1.7328 -1.334,2.1328 -0.6667,0.4 -1.332,-0.1326 -1.332,-1.1992 0,-1.2 0.6653,-2.1328 1.332,-2.1328 z m -183.1367,0.3769 v 0 c 0.031,-0.014 0.054,-0.013 0.07,0 0.2667,0.2667 -0.1336,5.8651 -0.9336,12.3984 -0.6667,6.5333 -1.3334,14.8 -1.4668,18.5333 l -0.1328,6.6679 -3.1992,-10.4004 -3.334,-10.4004 4.2676,-8.666 c 2.25,-4.3749 4.2656,-7.9291 4.7285,-8.1367 z m 288.2695,0.9043 c 0.1219,0.032 0.234,0.135 0.334,0.3184 0.4,0.9333 1.5999,4.9326 2.5332,8.666 1.3333,6 1.3349,7.3331 -0.3984,9.0664 -1.6,1.4667 -2.268,1.6009 -2.668,0.2676 -0.4,-0.8 -1.467,0.533 -2.4004,3.0664 l -1.8652,4.666 -0.668,-5.332 c -0.75,-5.5 3.3047,-21.1954 5.1328,-20.7188 z m -349.5781,1.9941 c 0.085,0.01 0.1464,0.023 0.1797,0.057 0.1333,0.1333 -0.2664,7.2001 -1.0664,15.4668 -0.6667,8.4 -1.4677,17.8678 -1.7344,21.2012 l -0.2656,6 -3.8672,-7.334 c -2.1333,-4 -5.0665,-9.0664 -6.5332,-11.0664 -2.2667,-3.4667 -2.4003,-4.4007 -0.9336,-9.334 2.2667,-7.8667 4.9324,-11.5996 9.7324,-13.5996 2.1,-0.8167 3.894,-1.4289 4.4883,-1.3907 z m 162.3164,0.062 c 0.9836,0.092 2.5296,4.0287 5.4629,13.1954 1.8667,5.7333 3.2003,10.6664 2.9336,11.0664 -0.2667,0.2666 -2.1328,-2.0003 -4.1328,-4.9336 -1.8667,-2.9334 -3.7348,-5.334 -4.1348,-5.334 -0.2667,0 1.4667,4.2668 4,9.4668 3.8667,8.1333 4.4011,10.4009 3.7344,16.2676 -0.4,4.6666 -1.9999,8.7998 -4.5332,12.5332 -2.2667,3.0666 -5.4673,8.2673 -7.334,11.3339 l -3.334,5.7325 0.5332,-20 c 0.5334,-17.0667 2.6677,-33.8664 5.7344,-47.1992 0.2917,-1.4167 0.6232,-2.1706 1.0703,-2.129 z M 235.3457,113.31 c 2.6542,-0.086 4.2875,2.2912 9.1875,11.5079 l 4.8008,9.1992 -3.4668,5.4668 c -1.8667,3.0666 -4.6676,8.2663 -6.2676,11.5996 l -2.7988,6 -1.6016,-14 c -0.8,-7.7333 -1.9999,-17.333 -2.5332,-21.5996 -0.8,-6.6667 -0.6665,-7.6 1.4668,-8 0.4333,-0.1 0.8337,-0.1616 1.2129,-0.1739 z m 785.1093,0.9688 c 0.256,-0.036 0.461,0.1391 0.611,0.5391 0.267,0.9333 -0.266,2.5324 -1.066,3.7324 -2.4,2.8 -3.199,1.3349 -1.199,-2.3985 0.666,-1.1666 1.228,-1.8131 1.654,-1.873 z m -206.7792,1.2754 c 0.039,0 0.084,-3e-4 0.1367,0.014 0.5055,0.1226 1.6367,1.0168 3.3867,2.7168 2.2667,2.1333 3.6012,4.6657 3.2012,5.7324 -0.5333,1.3333 -1.6005,0.534 -3.8672,-2.7988 -2.5,-3.672 -3.4433,-5.6053 -2.8574,-5.6641 z m 585.6502,0.1816 c 0.08,-0.01 0.174,0.081 0.274,0.2813 0.266,0.9333 0.266,2.8 0,4 -0.4,1.3333 -0.666,0.5337 -0.666,-1.5996 0,-1.7 0.148,-2.6504 0.392,-2.6817 z m 254.008,0.016 2.666,7.332 c 1.467,4 4.134,12.6673 5.867,19.334 4.534,16.8 8.934,43.866 8,48.666 -0.933,4 -3.201,5.6009 -3.201,2.1348 0,-1.0667 -2.799,-7.4676 -6.133,-14.2676 l -6.265,-12.4004 -0.536,-25.332 z m -648.135,0.666 c 0.667,0 1.467,0.9333 2,2 0.4,1.2 0,2 -1.199,2 -1.067,0 -2,-0.9334 -2,-2 0,-1.0667 0.533,-2 1.199,-2 z m -758.2088,0.3691 c 1.4529,0.1294 7.3603,3.6152 8.877,5.3652 0.9333,1.3334 1.0656,2.2655 0.2656,2.7989 -0.6667,0.5333 -1.866,-0.2668 -2.666,-1.4668 -1.0667,-1.8667 -1.7332,-1.9994 -2.5332,-0.666 -0.8,1.2 -1.5994,0.7989 -2.666,-1.7344 -0.9334,-1.8667 -1.6016,-3.7328 -1.6016,-4.1328 0,-0.1334 0.1167,-0.1826 0.3242,-0.1641 z m 649.4707,1.1016 c 0.794,-0.2889 0.8988,7.3386 0.072,22.2636 l -1.0664,19.5997 -1.5996,-8.5332 c -1.0667,-6 -1.2004,-11.4672 -0.4004,-18 1.3417,-10.0917 2.3766,-15.1055 2.9941,-15.3301 z m 76.2696,1.0605 c 0.7072,0.087 0.7205,8.427 -0.064,24.002 -0.9333,17.3333 -1.0669,17.8673 -2.9336,13.334 -2.1333,-4.8 -1.7327,-11.7332 1.334,-30.5332 0.7333,-4.6292 1.2936,-6.8485 1.6641,-6.8028 z m -204.3301,0.9356 3.8672,12.5332 c 2,6.9333 4.1332,14.6659 4.5332,17.1992 0.6666,4.1333 0.1327,5.3346 -3.334,8.668 l -4,3.8671 -0.5332,-3.2011 c -3.6,-19.3334 -4.2671,-27.8673 -2.4004,-33.334 z m -121.3418,0.2968 c 0.4177,-0.041 1.4247,1.3197 2.9414,4.2364 1.2,2.2666 1.7326,4.7996 1.1992,5.5996 -0.6666,0.9333 -1.5993,-0.1331 -2.666,-3.0664 -1.575,-4.35 -2.0116,-6.7174 -1.4746,-6.7696 z m 541.0914,0.3868 c 0.884,0.083 2.051,1.183 3.717,3.3164 2.534,3.2 8.133,18.6675 8.133,22.2675 0,0.8 -2,-1.4683 -4.4,-5.0683 -2.4,-3.7333 -5.732,-8.5327 -7.332,-10.666 -1.867,-2.6667 -2.669,-5.0664 -2.135,-7.0664 0.533,-1.9334 1.134,-2.8666 2.017,-2.7832 z m -591.2164,1.1836 c 0.2667,0 0.1329,3.2002 -0.4004,6.9335 -1.2,9.4667 -3.0659,12.8002 -3.1992,5.4668 0,-4.9333 2.1329,-12.4003 3.5996,-12.4003 z m -378.0625,0.021 c 0.1961,-0.022 0.3957,0.057 0.5957,0.2442 0.2667,0.4 0.2658,8.9336 -0.2676,18.9336 -1.0666,21.8666 -3.7319,23.0677 -3.8652,1.7343 0,-11.1166 1.6413,-20.7014 3.5371,-20.9121 z m 1013.3969,0.6446 1.332,5.5996 c 0.8,3.7333 0.8,6.5333 -0.133,8 -1.067,1.8666 -1.334,0.5337 -1.334,-5.5996 z m 78.91,0.4765 c 1.261,0.1433 2.022,3.8399 3.355,12.5899 1.2,8.6666 1.2,11.0661 -0.533,14.1328 -1.067,2.1333 -2.934,7.8669 -4.268,12.9336 l -2.398,9.2012 -0.801,-10 c -1.866,-21.7334 -1.467,-30.6663 1.6,-35.5997 1.35,-2.15 2.288,-3.3437 3.045,-3.2578 z m 66.097,0.3106 c 0.07,0 0.138,0.051 0.192,0.1465 0.533,0.9333 1.6,7.8668 2.4,15.4668 1.734,16.6666 1.866,29.9996 0.266,31.5996 -0.667,0.8 -3.2,5.0677 -5.467,9.7343 l -4.266,8.5332 -3.201,-4.8007 c -1.733,-2.5334 -3.199,-6.2662 -3.199,-8.1328 0,-9.1709 11.011,-52.6279 13.275,-52.5469 z m -1240.7672,1.4531 c 0.092,-0.023 0.193,0.027 0.293,0.1602 0.4,0.4 0.5328,1.5998 0.1328,2.5332 -0.4,1.0666 -0.8008,0.6658 -0.8008,-0.8008 -0.1,-1.1 0.1,-1.8238 0.375,-1.8926 z m 953.2112,0.3379 c 0.339,0.048 0.715,0.322 1.082,0.8887 0.666,1.0666 1.199,2.6668 1.199,3.4668 0,2.4 -2.266,2.1329 -3.199,-0.4004 -0.8,-2.2 -0.101,-4.0989 0.918,-3.9551 z m -778.3928,1.4082 c 0.081,-0.01 0.1734,0.081 0.2734,0.2812 0.2667,0.9334 0.2667,2.8 0,4 -0.4,1.3334 -0.666,0.5318 -0.666,-1.6015 0,-1.7 0.1488,-2.6485 0.3926,-2.6797 z m -234.51761,1.1738 c 0.049,-0.01 0.0917,0.01 0.125,0.039 0.26667,0.2667 1.86628,7.8669 3.59961,16.9336 1.73334,9.0666 3.6,19.4678 4,23.2012 l 0.80078,6.5332 -5.20117,-5.0664 -5.19922,-5.0665 -0.5332,-15.4668 c -0.4,-9.0666 -0.13398,-16.9346 0.66602,-18.6679 0.7,-1.4 1.39948,-2.3921 1.74218,-2.4395 z m 757.92381,0.1328 c 1.112,0.2151 2.3502,4.5898 2.4668,9.3731 0,3.7333 0,3.8668 -1.8652,1.4668 -2.1333,-2.8 -2.6664,-9.066 -1.0664,-10.666 0.15,-0.15 0.306,-0.2046 0.4648,-0.1739 z m -774.06638,0.041 0.40039,2.9335 c 0.26666,1.6 -2.00026,7.1994 -4.9336,12.6661 -3.06666,5.3333 -5.46679,9.3341 -5.46679,8.8007 0,-1.6 6.26757,-17.8673 8.26757,-21.3339 z m 994.39998,0 0.934,8 c 0.533,4.4 1.066,11.866 1.066,16.666 l -0.132,8.666 -0.934,-6.666 c -0.667,-3.7334 -1.066,-11.1994 -1.066,-16.666 z m -351.066,2 c 0.8,0 1.334,0.7985 1.334,1.8652 0,1.0667 -0.534,2.4008 -1.334,2.8008 -0.6667,0.4 -1.334,-0.4006 -1.334,-1.8672 0,-1.6 0.6673,-2.7988 1.334,-2.7988 z m 382.4,0 c 0.534,0 2,1.5996 3.067,3.5996 3.866,6.8 4.267,17.866 0.801,26.666 l -2.934,7.7344 -0.801,-8.668 c -1.333,-12.8 -1.333,-29.332 -0.133,-29.332 z M 402,131.084 c 0.4,0 0.666,4.6676 0.666,10.2676 v 10.2656 l -2.7988,-2.7988 c -2.8,-2.6667 -2.8013,-2.9343 -0.668,-10.2676 1.2,-4.1334 2.5341,-7.4668 2.8008,-7.4668 z m 1115.977,2.8008 c 0.481,-0.1341 0.689,1.3665 0.689,4.5332 0,2.5333 -0.532,4.666 -1.332,4.666 -1.467,0 -1.733,-3.9992 -0.533,-7.1992 0.5,-1.25 0.887,-1.9196 1.176,-2 z m -103.442,0.623 c 0.476,-0.1078 0.964,1.1102 1.197,3.9102 0.267,2.8 -0.131,5.6004 -0.931,6.4004 -1.067,1.0666 -1.467,-0.1339 -1.467,-3.8672 0,-3.975 0.589,-6.3048 1.201,-6.4434 z m 208.32,2.2422 c 1.081,-0.2469 6.515,7.2686 10.745,15.002 10.666,19.6 10.4,17.7332 10.8,60.5332 0.134,21.2 0.133,38.5337 0.133,38.4003 -0.133,-0.1333 -1.6,-5.0669 -3.066,-10.9335 -3.867,-14.1334 -11.067,-31.8674 -17.467,-43.334 -6.267,-10.8 -6.534,-15.2 -3.334,-42 1.067,-8.8 2,-16.6673 2,-17.334 0.01,-0.2 0.08,-0.3085 0.189,-0.334 z m -1133.0132,1.2402 c 0.092,-0.023 0.191,0.029 0.291,0.1621 0.4,0.4 0.5348,1.5999 0.1348,2.5332 -0.4,1.0667 -0.8008,0.6659 -0.8008,-0.8007 -0.1,-1.1 0.1,-1.8258 0.375,-1.8946 z m 495.9414,0.1094 c 0.1961,0.047 0.4828,0.3844 0.8828,0.9844 0.6667,1.0667 1.2012,4.1346 1.2012,6.668 -0.1333,4.2666 -0.2679,4.3987 -1.2012,1.332 -0.5333,-1.8667 -1.0659,-4.7994 -1.1992,-6.666 -0.083,-1.6667 -0.01,-2.3965 0.3164,-2.3184 z m 25.2828,1.3692 c 1.391,0.2366 2.396,10.071 0.934,14.6835 l -1.6,5.4649 -1.867,-3.332 c -1.733,-3.3334 -1.065,-8.6672 1.735,-15.8672 0.27,-0.7084 0.541,-0.9932 0.798,-0.9492 z m -100.4,2.2832 c 0.4,0 2.6664,5.8658 5.0664,13.1992 l 4.2676,13.2011 -4.8008,4.7989 c -2.6666,2.6666 -4.9316,4.8008 -4.9316,4.8008 -0.1334,0 -0.2676,-8.1334 -0.2676,-18 0,-9.8667 0.266,-18 0.666,-18 z m 272.451,0.4003 c 0.213,0.02 0.567,0.7167 1.151,2 1.066,2.2667 1.066,3.4666 0,4.5332 -1.2,1.2 -1.601,0.5317 -1.467,-3.0683 0,-2.4 0.04,-3.4906 0.316,-3.4649 z m 370.805,0.068 c 0.739,0.2733 0.495,8.2729 -0.455,25.5313 -0.8,12.4 -1.867,25.3326 -2.533,28.666 l -1.067,6 -0.933,-6.5332 c -1.867,-12.8 -1.067,-30.4006 2,-43.8672 1.516,-6.5542 2.482,-9.9839 2.988,-9.7969 z m -850.3224,2.0059 c 0.9295,-0.2084 1.7344,5.8664 1.7344,16.1914 0,11.8666 -0.5333,17.2 -2,20 -1.2,2.2666 -2.4008,4 -2.8008,4 -0.6667,0 0.3996,-24.9338 1.5996,-34.4004 0.4583,-3.85 0.9799,-5.6819 1.4668,-5.791 z m -307.1992,6.3242 3.0664,3.8672 c 2.1333,2.6666 3.1992,5.7336 3.1992,8.9336 0,4.9333 -0.1327,5.0664 -4.666,5.0664 -5.3333,0 -5.4659,-0.4003 -3.1992,-10.9336 z m 790.2656,0.5332 c 0.533,0 2.534,5.2015 4.4,11.6015 1.867,6.5334 4.133,15.4662 5.067,20.1329 l 1.599,8.4004 -4.265,4.3984 c -2.267,2.2667 -4.133,4.6678 -4.133,5.2012 0,0.5333 -1.068,2.5332 -2.268,4.5332 l -2.265,3.4668 -1.069,-3.8672 c -0.533,-2.1334 -1.465,-12.9339 -1.865,-23.8672 -0.8,-17.6 -0.666,-20.6664 1.467,-25.0664 1.2,-2.6667 2.799,-4.9336 3.332,-4.9336 z m -931.6875,0.7383 c 0.046,-0.01 0.092,0 0.1367,0.016 0.4328,0.1586 0.8508,1.3461 1.5508,3.2461 1.2,3.7333 1.2005,5.2006 -0.1328,7.334 -0.9333,1.4666 -1.9999,5.9994 -2.5332,10.1328 -0.6667,4.9333 -2.2674,9.6006 -4.8008,13.334 -2.1333,3.2 -3.8652,5.0661 -3.8652,4.1328 0,-2.9334 3.9995,-22.0003 6.1328,-28.9336 2.0313,-6.4844 2.8259,-9.1692 3.5117,-9.2617 z m 221.3965,0.664 c 0.55,-0.019 0.425,2.5317 -0.375,7.9317 -0.5333,4 -1.2007,5.8666 -1.334,4 -0.4,-4.2667 0.1336,-9.7331 0.9336,-11.0664 0.3333,-0.5667 0.5921,-0.859 0.7754,-0.8653 z m 261.5176,1.1524 c 0.1948,-0.093 0.516,1.0052 1.041,3.0468 0.9333,3.3334 0.8,6.2661 0,8.6661 -1.2,3.2 -1.334,2.3997 -1.334,-4.9336 0,-4.575 0.043,-6.6604 0.293,-6.7793 z m -117.5801,1.457 c 0.225,0 0.7875,0.6555 1.6875,1.8555 1.0667,1.4666 2,4.1333 2,6 -0.1333,2.9333 -0.4,2.5328 -2,-1.8672 -1.5,-4.1667 -2.0625,-5.9883 -1.6875,-5.9883 z m 137.8203,1.3223 c 0.2667,0 0.5337,4.0002 0.4004,8.9336 -0.1333,7.4666 -0.2673,8.3997 -1.334,5.0664 -1.0666,-3.4667 -0.2664,-14 0.9336,-14 z m 19.9297,0.3847 c 0.031,-0.01 0.054,0 0.07,0.016 0.2667,0.1333 1.3337,4.1321 2.4004,8.7988 l 2,8.4004 -5.5996,-0.7988 -5.5996,-0.8008 4.666,2.1328 c 2.5333,1.2 4.7997,2.2665 5.0664,2.5332 0.5333,0.4 -5.4657,12.134 -7.7324,15.334 -1.0667,1.4666 -1.1999,0.7997 -0.5332,-2.9336 0.4,-2.9334 -1e-4,-7.7337 -1.4668,-12.4004 l -2.1348,-7.5996 4.2676,-6.5332 c 2.125,-3.375 4.1333,-6.0474 4.5957,-6.1485 z m -713.37891,2.2305 c 0.30241,-0.045 0.58269,0.4681 0.91602,1.3848 0.8,1.8666 1.33398,8.6673 1.33398,15.334 -0.13333,6.5333 -0.5345,20.6653 -1.20117,31.332 l -1.0664,19.334 -4.53321,-7.1992 c -4,-6 -4.53229,-8.1339 -4.26562,-14 0.4,-9.3334 2.39909,-21.8681 5.73242,-36.1348 1.65,-7.15 2.41868,-9.9513 3.08398,-10.0508 z M 1292.15,159.2363 c 0.475,0.2063 0.35,5.3817 -0.15,19.1817 -0.667,18.5333 -1.332,19.2 -3.732,4 -0.934,-6 -0.801,-9.3334 0.666,-14 1.066,-3.3334 2.266,-6.8006 2.533,-7.8672 0.3,-0.9 0.525,-1.3832 0.683,-1.3145 z m -354.0172,1.1817 c 0.2667,0 0.5332,1.4673 0.5332,3.334 0,1.8666 -0.5325,3.332 -1.1992,3.332 -0.5333,0 -0.8004,-1.4654 -0.4004,-3.332 0.2667,-1.8667 0.7997,-3.334 1.0664,-3.334 z m 509.7622,0.025 c 2.26,-0.054 8.701,14.7045 13.171,30.7754 l 3.868,13.7324 -3.735,8.5332 c -2.133,4.6666 -5.199,13.2008 -6.799,18.8008 l -3.066,10.1328 -1.602,-7.334 c -2,-8.5333 -3.998,-70.5328 -2.398,-74.1328 0.137,-0.3375 0.327,-0.5023 0.561,-0.5078 z m -1295.4946,6.9921 c 0.1333,-0.083 0.4003,0.7165 0.9336,2.3165 0.5333,1.8666 1.0664,6.666 1.0664,10.666 l -0.1328,7.334 -0.9336,-6.668 c -0.6667,-3.7333 -1.0664,-8.5327 -1.0664,-10.666 0,-1.9334 -5e-4,-2.8991 0.1328,-2.9825 z m -78.23438,0.5977 c 0.28333,0 0.66796,0.4175 1.16796,1.0508 1.2,1.4667 3.5987,5.7349 5.33204,9.6015 2.53333,5.4667 2.93333,7.8667 2,12 C 81.99935,193.4875 80.8,202.684 80,211.084 c -0.93333,8.4 -2.13268,16.135 -2.66602,17.0683 -0.93333,2 -2.26679,-13.7349 -3.46679,-43.6015 -0.5,-12.8 -0.55117,-16.5238 0.29883,-16.5176 z m 863.67578,0.625 c 0.092,-0.023 0.191,0.027 0.291,0.1602 0.4,0.4 0.5348,1.5998 0.1348,2.5332 -0.4,1.0666 -0.8008,0.6658 -0.8008,-0.8008 -0.1,-1.1 0.1,-1.8238 0.375,-1.8926 z m -677.1816,1.6973 c 0.081,0.021 0.1734,0.13 0.2734,0.33 0.2667,0.9334 0.2667,2.5321 0,3.3321 -0.4,0.9333 -0.666,0.267 -0.666,-1.5996 0,-1.4 0.1488,-2.125 0.3926,-2.0625 z m 133.2324,0.9375 c 0.1185,-0.01 0.243,0 0.373,0.01 1.2485,0.1 3.0184,0.9688 5.0684,2.7188 3.3333,2.9333 3.3332,3.3344 2.5332,13.7344 L 400.9336,198.418 398,189.084 c -1.6,-5.2 -3.5999,-10.6651 -4.5332,-12.3985 -1.7969,-3.3593 -1.3514,-5.3003 0.4258,-5.3925 z m -65.4903,0.082 c 0.461,0.1367 1.0651,2.793 2.3985,9.043 1.3333,6.2666 2.3999,13.1996 2.5332,15.5996 0,2.2666 -1.4673,7.334 -3.334,11.334 l -3.334,7.0664 v -18.1328 c 0,-10 0.4003,-20.1347 0.9336,-22.668 0.3,-1.5 0.5262,-2.3242 0.8027,-2.2422 z m 1168.9317,3.709 c 2,0 2.133,0.8015 1.199,5.6015 -0.533,3.2 -1.066,9.599 -1.199,14.2657 0,5.0666 -0.535,8.134 -1.201,7.334 -1.334,-1.4667 -2.932,-25.2004 -1.865,-26.4004 0.533,-0.4 1.866,-0.8008 3.066,-0.8008 z m -1043.3399,3.3203 c 0.081,-0.01 0.1735,0.081 0.2735,0.2812 0.2666,0.9334 0.2666,2.8 0,4 -0.4,1.3334 -0.668,0.5318 -0.668,-1.6015 0,-1.7 0.1508,-2.6485 0.3945,-2.6797 z m -191.5664,3.2598 c 1.0044,0.1905 1.5723,4.3036 1.5723,11.8203 0,6.5333 -0.4003,18.4004 -0.9336,26.4004 L 262,234.418 l -0.8008,-8.666 c -1.2,-11.4667 -1.4651,-39.2006 -0.3984,-41.8672 0.625,-1.5834 1.1704,-2.3073 1.6269,-2.2207 z m 257.4395,2.7539 c 0.6667,0 0.9332,1.1993 0.5332,2.666 -0.4,1.4667 -0.9345,2.668 -1.2012,2.668 -0.2666,0 -0.5332,-1.2013 -0.5332,-2.668 0,-1.4667 0.5345,-2.666 1.2012,-2.666 z m -79.2012,4.8008 0.4004,5.4667 c 0.2667,3.0667 -0.1322,7.4653 -0.7988,9.8653 l -1.0684,4.4004 -1.7324,-6.1328 c -1.6,-5.4667 -1.4659,-6.5339 0.8008,-9.8672 z m 696.057,3.3535 c 0.06,-0.014 0.127,0.4967 0.211,1.58 0.266,3.4667 0.266,8.9334 0,12 -0.267,3.0667 -0.401,0.133 -0.401,-6.4003 0,-4.5834 0.06,-7.1497 0.19,-7.1797 z m -618.8871,1.3769 c 0.4608,0.066 0.905,0.7272 1.3633,1.9356 1.0667,2.6666 1.0672,13.0665 -0.1328,28.5332 l -0.7988,12.4004 -3.0684,-12.5332 c -2.9333,-12.1334 -2.9316,-12.7997 -0.9316,-21.5997 1.4666,-6.1416 2.5546,-8.8809 3.5683,-8.7363 z m 679.7301,4.2871 c 0.371,-0.057 0.683,0.8477 1.1,2.8477 0.533,2.1333 1.066,6.6667 1.066,10 l 0.135,6 -2.135,-7.7324 c -1.066,-4.2667 -1.465,-8.8 -0.931,-10 0.3,-0.7 0.543,-1.0809 0.765,-1.1153 z m -409.7926,8.2832 c 0.033,-0.01 0.065,3e-4 0.094,0.031 0.4,0.4 1.467,5.2013 2.4004,10.668 l 1.4648,10 -4.5332,9.5996 -4.666,9.5996 0.666,-9.5996 c 0.775,-12.2709 3.5529,-30.0484 4.5742,-30.2989 z M 926,210.418 l 0.4004,6.5332 c 0.2667,3.6 -0.2678,8.267 -1.2012,10.4004 -2.4,6 -2.7983,3.6002 -0.9316,-7.0664 z m 264,0.1328 0.801,3.8672 c 0.533,2.2666 0.933,5.3336 1.066,6.9336 0.134,2.2666 -0.667,3.0664 -2.4,3.0664 -4.134,0 -4.667,-2.4004 -2,-8.4004 z m -941.334,7.2012 c 0.4,0 0.668,4.0002 0.668,8.9335 0,6.2667 -0.4001,8.5335 -1.4668,7.4668 -0.6667,-0.6666 -1.4668,-2.5338 -1.4668,-3.8671 -0.2667,-3.2 1.4656,-12.5332 2.2656,-12.5332 z m 546.6602,49.1113 c 0.081,0.029 0.1734,0.1883 0.2734,0.4883 0.2667,1.3333 0.2667,3.466 0,4.666 -0.4,1.3333 -0.666,0.2677 -0.666,-2.2656 0,-1.9 0.1488,-2.9762 0.3926,-2.8887 z"
       inkscape:connector-curvature="0" />
  </g>
</svg>
